<svg width="12" height="12" viewBox="0 0 12 12" fill="none" xmlns="http://www.w3.org/2000/svg">
<path d="M8.33334 3.66663C9.26159 3.66663 10.1518 4.03538 10.8082 4.69175C11.4646 5.34813 11.8333 6.23837 11.8333 7.16663V11.25H9.5V7.16663C9.5 6.85721 9.37709 6.56046 9.15829 6.34167C8.9395 6.12288 8.64276 5.99996 8.33334 5.99996C8.02392 5.99996 7.72717 6.12288 7.50838 6.34167C7.28959 6.56046 7.16667 6.85721 7.16667 7.16663V11.25H4.83334V7.16663C4.83334 6.23837 5.20208 5.34813 5.85846 4.69175C6.51484 4.03538 7.40508 3.66663 8.33334 3.66663Z" fill="#101010"/>
<path d="M0.166668 4.25H2.5V11.25H0.166668V4.25Z" fill="#101010"/>
<path d="M1.33333 2.49996C1.97767 2.49996 2.5 1.97763 2.5 1.33329C2.5 0.68896 1.97767 0.166626 1.33333 0.166626C0.689002 0.166626 0.166668 0.68896 0.166668 1.33329C0.166668 1.97763 0.689002 2.49996 1.33333 2.49996Z" fill="#101010"/>
</svg>
