<svg width="14" height="12" viewBox="0 0 14 12" fill="none" xmlns="http://www.w3.org/2000/svg">
<path d="M13.4167 0.750006C12.8581 1.14403 12.2396 1.4454 11.585 1.64251C11.2337 1.23855 10.7668 0.952243 10.2474 0.822297C9.7281 0.69235 9.18137 0.725037 8.68122 0.915938C8.18106 1.10684 7.75159 1.44674 7.45091 1.88967C7.15022 2.33261 6.99283 2.8572 7 3.39251V3.97584C5.97487 4.00242 4.95908 3.77506 4.04309 3.31402C3.1271 2.85297 2.33935 2.17254 1.75 1.33334C1.75 1.33334 -0.583331 6.58334 4.66667 8.91667C3.46531 9.73215 2.03418 10.141 0.583336 10.0833C5.83333 13 12.25 10.0833 12.25 3.37501C12.2495 3.21252 12.2338 3.05044 12.2033 2.89084C12.7987 2.30371 13.2188 1.56242 13.4167 0.750006Z" fill="#101010"/>
</svg>
